<?xml version="1.0" encoding="UTF-8"?>
<svg id="Layer_2" data-name="Layer 2" xmlns="http://www.w3.org/2000/svg" xmlns:xlink="http://www.w3.org/1999/xlink" viewBox="0 0 451.95 420.74">
  <defs>
    <style>
      .cls-1 {
        fill: url(#linear-gradient);
      }

      .cls-2 {
        fill: #fff;
      }
    </style>
    <linearGradient id="linear-gradient" x1="378.13" y1="193.84" x2="231.48" y2="436.55" gradientUnits="userSpaceOnUse">
      <stop offset="0" stop-color="#fff"/>
      <stop offset="1" stop-color="#e6e6e6"/>
    </linearGradient>
  </defs>
  <g id="Layer_1-2" data-name="Layer 1">
    <g>
      <path class="cls-2" d="M294.83,92.81c0,11.2-9.08,20.28-20.28,20.28h-98.05c-5.61,0-10.67-2.27-14.34-5.94-3.67-3.67-5.94-8.75-5.94-14.34,0-11.2,9.08-20.28,20.28-20.28h41.19v-27.75c-8.7-3.33-14.88-11.75-14.88-21.63,0-12.78,10.38-23.16,23.16-23.16s23.16,10.38,23.16,23.16c0,10.23-6.64,18.92-15.84,21.97v27.41h41.27c5.59,0,10.67,2.27,14.34,5.94,3.67,3.67,5.94,8.75,5.94,14.34Z"/>
      <path class="cls-2" d="M134.94,176.94c-13.33,13.33-21.58,31.75-21.58,52.11,0,19.31,7.42,36.88,19.58,50.02l-14.11,40.89,48.97-19.77c6.14,1.66,12.59,2.55,19.25,2.55h74.72c20.34,0,38.78-8.25,52.11-21.58,8.5-8.5,14.94-19.08,18.48-30.89h-45c-12.02,0-21.75-9.73-21.75-21.75,0-6,2.44-11.44,6.38-15.38,3.94-3.94,9.38-6.38,15.38-6.38h112.16v90.53c0,37.09-30.08,67.17-67.17,67.17H119.6c-37.09,0-67.17-30.08-67.17-67.17v-137.32c0-37.09,30.08-67.17,67.17-67.17h212.75c37.09,0,67.17,30.08,67.17,67.17v26.06h-77.88c-13.39-18.59-35.22-30.7-59.88-30.7h-74.72c-20.34,0-38.78,8.25-52.11,21.59Z"/>
      <path class="cls-1" d="M399.52,206.77v90.53c0,37.09-30.08,67.17-67.17,67.17h-26.98l-89.69,53.88-1.06.66c-1.94,1.19-4.02,1.73-6.05,1.73-6.06,0-11.66-4.83-11.67-11.61v-44.66c32.8-5.52,59.59-19.09,80.45-33.53,34.59-23.91,52.84-55.64,55.02-80.67h-45c-12.02,0-21.75-9.73-21.75-21.75,0-6,2.44-11.44,6.38-15.38,3.94-3.94,9.38-6.38,15.38-6.38h112.16Z"/>
      <circle class="cls-2" cx="170.53" cy="228.84" r="14.61"/>
      <circle class="cls-2" cx="225.53" cy="228.84" r="14.61"/>
      <path class="cls-2" d="M451.95,208.33v41.8c0,19.63-15.91,35.53-35.53,35.53h-3.53v-112.86h3.53c19.63,0,35.53,15.91,35.53,35.53Z"/>
      <path class="cls-2" d="M0,207.75v41.8c0,19.63,15.91,35.53,35.53,35.53h3.53v-112.86h-3.53c-19.63,0-35.53,15.91-35.53,35.53Z"/>
    </g>
  </g>
</svg>